<svg width="145" height="130" viewBox="0 0 145 130" fill="none" xmlns="http://www.w3.org/2000/svg">
<path fill-rule="evenodd" clip-rule="evenodd" d="M44.7571 0.428977C44.2927 0.893375 44.1328 1.61385 43.992 3.87684C43.7645 7.53576 42.9154 10.185 41.1766 12.6636C39.3674 15.2429 38.7705 17.244 39.2145 19.243C40.1444 23.4287 44.1513 25.4195 47.9475 23.582C49.6295 22.7675 52.0322 20.4398 52.8545 18.8279C55.4811 13.6788 53.3177 5.48931 48.2288 1.31915C46.5085 -0.0904702 45.528 -0.34198 44.7571 0.428977ZM70.5322 0.108733C69.6613 0.414378 69.3158 1.23704 69.3158 3.00674C69.3158 5.10094 68.5449 9.0792 67.8959 10.3343C67.6451 10.8194 66.8495 12.0788 66.1276 13.1329C64.0025 16.2374 63.7926 18.629 65.3947 21.4799C66.3864 23.2444 68.1295 24.2264 70.2549 24.2179C74.6295 24.2003 78.7404 19.8796 79.2193 14.7967C79.6576 10.1455 77.1916 4.3163 73.5289 1.34652C72.1166 0.201491 71.2679 -0.149165 70.5322 0.108733ZM95.5541 0.207572C94.778 0.516563 94.6409 1.00864 94.4532 4.15238C94.2574 7.42902 93.7505 9.33588 92.5818 11.1913C92.0177 12.087 91.1777 13.4257 90.7152 14.1663C89.1545 16.6647 89.3999 20.1378 91.2887 22.2895C92.5587 23.7356 93.6364 24.2258 95.5298 24.2179C98.6332 24.2051 101.742 21.9628 103.44 18.5125C104.359 16.6467 104.44 16.2477 104.438 13.5866C104.436 11.309 104.282 10.2628 103.714 8.68414C102.8 6.14409 100.586 2.8489 98.8141 1.39062C97.2416 0.0965668 96.5044 -0.170759 95.5541 0.207572ZM49.066 8.22947C50.1766 10.577 50.5984 13.4306 50.1529 15.578C49.8652 16.9627 49.5091 17.6236 48.4249 18.7826C46.6955 20.6317 45.3048 21.1557 44.1395 20.3972C42.0907 19.0639 41.9946 17.4977 43.8132 15.0927C45.4991 12.8634 46.6663 10.338 47.1188 7.93934C47.5537 5.63407 47.8599 5.67999 49.066 8.22947ZM74.7611 9.17591C76.2397 13.0979 75.8541 16.443 73.6521 18.7972C71.932 20.6362 70.597 21.1317 69.3487 20.3942C67.4367 19.2646 67.3233 17.4539 69.0233 15.2024C70.7859 12.8677 71.6568 11.0222 72.2726 8.31767L72.813 5.94458L73.4994 6.79704C73.8771 7.266 74.4449 8.33652 74.7611 9.17591ZM100.078 9.3225C100.765 11.0879 101.01 14.7712 100.55 16.4196C100.214 17.6266 97.7443 20.1755 96.5199 20.5797C95.3315 20.9717 94.6351 20.7013 93.668 19.4714C92.6411 18.1661 92.8521 17.0959 94.6029 14.7341C96.2496 12.5131 97.3903 9.84954 97.7646 7.35146L97.9882 5.86125L98.7077 6.75538C99.103 7.24745 99.7197 8.40252 100.078 9.3225ZM41.0339 28.1782C40.4431 28.7691 40.4257 29.1919 40.4257 42.9283V57.0701L33.3553 57.0801C29.4667 57.0856 25.353 57.21 24.2144 57.3569C20.296 57.862 16.9578 60.3324 15.2396 63.9987L14.4246 65.7376L14.3422 93.0049C14.268 117.608 14.3073 120.319 14.7443 120.756C15.1837 121.196 20.535 121.24 72.6245 121.24C121.711 121.24 130.106 121.178 130.611 120.809C131.186 120.388 131.204 119.712 131.289 94.5781C131.349 76.9468 131.271 68.1636 131.045 66.8358C130.169 61.7101 126.519 58.1199 121.436 57.3849C120.284 57.2185 115.544 57.0795 110.902 57.0762L102.463 57.0701V42.7936V28.5167L101.787 28.0435C101.25 27.6667 100.193 27.57 96.6176 27.57C92.5292 27.57 92.069 27.6247 91.5156 28.1782C90.9247 28.7691 90.9074 29.1919 90.9074 42.9283V57.0701H84.065H77.2226V42.7936V28.5167L76.5466 28.0435C76.0089 27.6667 74.9521 27.57 71.3767 27.57C67.2883 27.57 66.8282 27.6247 66.2748 28.1782C65.6839 28.7691 65.6665 29.1919 65.6665 42.9283V57.0701H58.8242H51.9818V42.7936V28.5167L51.3057 28.0435C50.7681 27.6667 49.7113 27.57 46.1359 27.57C42.0475 27.57 41.5874 27.6247 41.0339 28.1782ZM48.3325 44.1448V57.0701H46.0517H43.7709V44.1448V31.2195H46.0517H48.3325V44.1448ZM73.5733 44.1448V57.0701H71.2925H69.0117V44.1448V31.2195H71.2925H73.5733V44.1448ZM98.8141 44.1448V57.0701H96.6854H94.5566V44.1448V31.2195H96.6854H98.8141V44.1448ZM120.998 61.0207C123.16 61.4306 124.92 62.6876 126.108 64.6696L127.096 66.3191V71.5598V76.8008L125.651 76.983C122.293 77.4066 120.103 78.3655 116.915 80.8089C114.351 82.7744 112.245 83.726 109.914 83.9724C106.477 84.3352 103.599 83.3936 100.639 80.9375C94.1923 75.5892 86.3479 75.6001 79.5034 80.967C76.0998 83.6357 73.0071 84.5 69.2675 83.827C67.2582 83.4657 65.4868 82.5378 62.8967 80.4904C57.643 76.3373 50.7109 75.7741 45.1512 79.0489C44.3083 79.5452 42.9553 80.4792 42.1442 81.1242C41.3332 81.7693 39.9084 82.6695 38.9785 83.1248C37.4923 83.8519 36.934 83.9514 34.371 83.9468C30.9814 83.9407 29.4739 83.4134 26.7409 81.2784C23.6321 78.8497 21.8144 77.8908 18.9102 77.146L17.6178 76.8148V72.3128C17.6178 67.3428 17.9568 65.6345 19.2894 63.8873C20.3714 62.4683 22.0863 61.3716 23.726 61.0496C25.6541 60.6712 119.009 60.6435 120.998 61.0207ZM57.9118 81.5543C58.7481 81.9612 60.185 82.9198 61.1049 83.6847C64.8309 86.7825 69.3696 88.148 73.868 87.5245C76.5514 87.1526 78.8206 86.1143 82.0025 83.8023C85.7524 81.0777 86.8427 80.6665 90.2991 80.672C93.7349 80.6778 95.3944 81.3104 98.4246 83.7707C101.065 85.9145 103.647 87.1073 106.492 87.4963C111.128 88.131 115.066 86.9598 119.37 83.6664C121.901 81.7303 123.601 80.9317 125.811 80.6401L127.415 80.4287L127.331 85.7044L127.248 90.98L125.423 91.1801C122.266 91.5268 120.358 92.3863 117.012 94.9707C116.065 95.7018 114.559 96.6766 113.666 97.1364C112.199 97.8918 111.735 97.9724 108.85 97.9737C105.115 97.9752 104.242 97.6476 100.61 94.884C96.3527 91.6436 93.0118 90.6543 88.0989 91.1792C85.525 91.4544 82.6487 92.7646 79.8075 94.9567C78.8039 95.7307 77.2302 96.7267 76.3103 97.1695C74.8445 97.8754 74.2618 97.9749 71.5966 97.9749C68.9001 97.9749 68.3661 97.8812 66.883 97.1477C65.9631 96.693 64.4577 95.6948 63.5378 94.93C59.8052 91.8267 55.8938 90.657 50.9934 91.1792C48.3872 91.4566 44.8058 93.0976 42.4024 95.1155C38.1072 98.7212 32.2602 99.1485 28.0717 96.1629C22.8244 92.4222 21.9172 91.9191 19.2903 91.2957L17.7698 90.9347L17.6862 85.8278L17.6029 80.7213L18.7506 80.9339C20.3757 81.2346 21.4033 81.7811 24.004 83.7269C27.0718 86.0225 29.5877 87.1724 32.2903 87.5145C36.8619 88.0929 40.745 86.9458 44.8395 83.8075C48.4432 81.0452 50.2906 80.4196 54.1105 80.6671C55.6687 80.7678 56.873 81.0491 57.9118 81.5543ZM57.9118 95.7085C58.9154 96.19 60.4767 97.1951 61.3814 97.9426C65.0903 101.007 69.3064 102.212 74.0073 101.553C76.8525 101.153 79.1494 100.071 82.5444 97.5281C85.5584 95.2709 87.1945 94.6906 90.5017 94.7058C92.6429 94.7156 93.3104 94.8524 94.9438 95.617C96.0011 96.1118 97.3386 96.9293 97.9161 97.4332C99.4999 98.8158 102.138 100.421 103.837 101.036C104.973 101.448 106.226 101.583 108.85 101.578C112.947 101.569 114.546 101.082 117.689 98.8876C122.851 95.2831 123.425 94.9969 126.108 94.6855L127.4 94.5352V106.063V117.591H72.5089H17.6178V106.186C17.6178 99.9137 17.7327 94.7816 17.8735 94.7816C19.0261 94.7816 21.4452 95.992 24.1527 97.9232C27.8585 100.566 29.7203 101.359 32.9049 101.647C37.3549 102.05 40.8503 100.915 45.1394 97.6735C47.8785 95.6033 48.8723 95.1179 51.0013 94.8101C53.6182 94.4318 55.8558 94.7226 57.9118 95.7085ZM0.482892 126.967C-0.134444 127.649 -0.161509 128.534 0.411123 129.318C0.836263 129.899 1.95781 129.909 72.1042 129.981C128.982 130.038 143.519 129.976 144.126 129.67C145.077 129.189 145.299 127.811 144.558 126.992C144.043 126.423 142.542 126.411 72.5089 126.411C3.60515 126.411 0.967637 126.431 0.482892 126.967Z" fill="#032E3C"/>
</svg>
