<svg width="182" height="130" viewBox="0 0 182 130" fill="none" xmlns="http://www.w3.org/2000/svg">
<mask id="path-1-inside-1" fill="white">
<path fill-rule="evenodd" clip-rule="evenodd" d="M29.9507 0.376514C26.1846 1.39069 22.9882 4.15646 21.2254 7.92592C20.4454 9.59403 20.2924 10.4362 20.1803 13.6818L20.0488 17.4837H23.7924H27.5357L27.6791 14.5078C27.8454 11.0634 28.5539 9.56463 30.6179 8.29158L31.8787 7.5143H70.5554C114.093 7.5143 110.499 7.29058 112.385 10.1182L113.321 11.5203L113.41 58.9421L113.499 106.364H93.808H74.1177L73.2842 103.936C69.2138 92.0788 55.1835 86.9211 44.1029 93.2086C40.1177 95.4698 36.1757 100.528 35.1017 104.759L34.6944 106.364H26.2047C17.2627 106.364 16.2148 106.513 14.9111 107.965C14.5751 108.34 14.2115 109.187 14.1035 109.849C13.8486 111.405 14.9486 113.255 16.4339 113.769C17.0923 113.996 20.7777 114.137 26.0987 114.137H34.6992L34.9204 115.306C35.042 115.949 35.7736 117.727 36.5462 119.258C39.0354 124.19 43.9175 128.12 49.2754 129.504C51.8676 130.173 56.7756 130.164 59.4315 129.485C65.9462 127.817 71.4632 122.554 73.4815 116.08L74.0874 114.137L100.009 114.143L125.929 114.149L126.723 116.636C128.697 122.823 134.108 127.827 140.654 129.518C143.131 130.157 148.208 130.158 150.635 129.518C157.103 127.813 162.593 122.713 164.59 116.553L165.357 114.185L172.473 114.076L179.588 113.968L180.701 112.863L181.815 111.758L181.907 90.6486L182 69.5391L175.024 55.762C170.282 46.3975 167.594 41.4668 166.631 40.3672C163.951 37.3094 159.736 35.0654 155.405 34.3926C154.134 34.1949 146.328 34.0472 137.089 34.0459L120.988 34.0432V22.583C120.988 12.3145 120.922 10.9107 120.347 9.08102C119.203 5.43559 116.765 2.78845 112.89 0.987862L110.936 0.0794588L71.2369 0.0142347C40.1262 -0.0367953 31.1945 0.041608 29.9507 0.376514ZM13.4039 32.9283C12.4869 33.1043 11.0039 34.7833 10.6982 35.9921C10.384 37.2337 11.5 39.1448 12.9663 39.8765C14.0806 40.4324 16.0182 40.4655 42.5054 40.3834L70.8515 40.2952L71.8918 39.3067C73.2164 38.0482 73.5268 36.5166 72.7758 34.9468C71.6438 32.5815 73.0978 32.6863 42.0502 32.7373C26.71 32.7627 13.8193 32.8485 13.4039 32.9283ZM157.151 42.7071C160.616 44.2961 161.105 45.0133 167.878 58.444C172.88 68.3627 174.147 71.1494 174.147 72.2295V73.583H147.568H120.988V57.6876V41.7923L138.282 41.8886C155.122 41.9826 155.617 42.0038 157.151 42.7071ZM2.50797 53.6792C0.340713 54.3007 -0.745301 57.4832 0.573113 59.3497C1.81622 61.11 1.25396 61.0789 31.7145 61.0789C62.3024 61.0789 61.2385 61.1398 62.5266 59.3159C63.2927 58.2317 63.2075 55.9509 62.3617 54.884C61.978 54.4008 61.0964 53.8489 60.4023 53.6576C58.7878 53.2129 4.06185 53.2332 2.50797 53.6792ZM18.8728 74.2866C17.4549 74.7006 16.0332 76.4001 16.0332 77.6809C16.0332 78.2335 16.266 79.1317 16.5501 79.6772C17.6263 81.7407 17.0947 81.6937 39.3694 81.6937C61.184 81.6937 61.2869 81.6859 62.5028 79.9644C63.5915 78.4231 63.0368 75.7976 61.3875 74.6861C60.5693 74.1349 58.9789 74.0855 40.2274 74.0308C28.4956 73.9963 19.4971 74.1044 18.8728 74.2866ZM174.147 93.8598V106.364H169.731H165.314L164.927 104.938C164.184 102.203 162.176 98.8172 159.923 96.5032C152.236 88.6068 139.494 88.4581 131.606 96.1731C129.198 98.5282 126.716 102.704 126.245 105.195L126.024 106.364H123.506H120.988V93.8598V81.3558H147.568H174.147V93.8598ZM59.532 99.268C66.5773 102.448 68.8642 111.349 64.2414 117.598C60.814 122.231 54.0464 123.807 48.7816 121.198C40.0049 116.848 39.7337 104.353 48.3148 99.6908C51.9466 97.7175 55.7775 97.5732 59.532 99.268ZM147.521 98.269C152.912 99.1365 156.743 102.914 157.791 108.396C158.649 112.881 156.282 118.119 152.299 120.55C145.758 124.541 137.597 122.116 134.333 115.21C133.561 113.578 133.426 112.838 133.426 110.25C133.426 107.663 133.561 106.922 134.333 105.291C136.077 101.6 139.542 98.905 143.359 98.2697C144.268 98.1183 145.089 97.978 145.183 97.9574C145.276 97.9371 146.329 98.0774 147.521 98.269Z"/>
</mask>
<path fill-rule="evenodd" clip-rule="evenodd" d="M29.9507 0.376514C26.1846 1.39069 22.9882 4.15646 21.2254 7.92592C20.4454 9.59403 20.2924 10.4362 20.1803 13.6818L20.0488 17.4837H23.7924H27.5357L27.6791 14.5078C27.8454 11.0634 28.5539 9.56463 30.6179 8.29158L31.8787 7.5143H70.5554C114.093 7.5143 110.499 7.29058 112.385 10.1182L113.321 11.5203L113.41 58.9421L113.499 106.364H93.808H74.1177L73.2842 103.936C69.2138 92.0788 55.1835 86.9211 44.1029 93.2086C40.1177 95.4698 36.1757 100.528 35.1017 104.759L34.6944 106.364H26.2047C17.2627 106.364 16.2148 106.513 14.9111 107.965C14.5751 108.34 14.2115 109.187 14.1035 109.849C13.8486 111.405 14.9486 113.255 16.4339 113.769C17.0923 113.996 20.7777 114.137 26.0987 114.137H34.6992L34.9204 115.306C35.042 115.949 35.7736 117.727 36.5462 119.258C39.0354 124.19 43.9175 128.12 49.2754 129.504C51.8676 130.173 56.7756 130.164 59.4315 129.485C65.9462 127.817 71.4632 122.554 73.4815 116.08L74.0874 114.137L100.009 114.143L125.929 114.149L126.723 116.636C128.697 122.823 134.108 127.827 140.654 129.518C143.131 130.157 148.208 130.158 150.635 129.518C157.103 127.813 162.593 122.713 164.59 116.553L165.357 114.185L172.473 114.076L179.588 113.968L180.701 112.863L181.815 111.758L181.907 90.6486L182 69.5391L175.024 55.762C170.282 46.3975 167.594 41.4668 166.631 40.3672C163.951 37.3094 159.736 35.0654 155.405 34.3926C154.134 34.1949 146.328 34.0472 137.089 34.0459L120.988 34.0432V22.583C120.988 12.3145 120.922 10.9107 120.347 9.08102C119.203 5.43559 116.765 2.78845 112.89 0.987862L110.936 0.0794588L71.2369 0.0142347C40.1262 -0.0367953 31.1945 0.041608 29.9507 0.376514ZM13.4039 32.9283C12.4869 33.1043 11.0039 34.7833 10.6982 35.9921C10.384 37.2337 11.5 39.1448 12.9663 39.8765C14.0806 40.4324 16.0182 40.4655 42.5054 40.3834L70.8515 40.2952L71.8918 39.3067C73.2164 38.0482 73.5268 36.5166 72.7758 34.9468C71.6438 32.5815 73.0978 32.6863 42.0502 32.7373C26.71 32.7627 13.8193 32.8485 13.4039 32.9283ZM157.151 42.7071C160.616 44.2961 161.105 45.0133 167.878 58.444C172.88 68.3627 174.147 71.1494 174.147 72.2295V73.583H147.568H120.988V57.6876V41.7923L138.282 41.8886C155.122 41.9826 155.617 42.0038 157.151 42.7071ZM2.50797 53.6792C0.340713 54.3007 -0.745301 57.4832 0.573113 59.3497C1.81622 61.11 1.25396 61.0789 31.7145 61.0789C62.3024 61.0789 61.2385 61.1398 62.5266 59.3159C63.2927 58.2317 63.2075 55.9509 62.3617 54.884C61.978 54.4008 61.0964 53.8489 60.4023 53.6576C58.7878 53.2129 4.06185 53.2332 2.50797 53.6792ZM18.8728 74.2866C17.4549 74.7006 16.0332 76.4001 16.0332 77.6809C16.0332 78.2335 16.266 79.1317 16.5501 79.6772C17.6263 81.7407 17.0947 81.6937 39.3694 81.6937C61.184 81.6937 61.2869 81.6859 62.5028 79.9644C63.5915 78.4231 63.0368 75.7976 61.3875 74.6861C60.5693 74.1349 58.9789 74.0855 40.2274 74.0308C28.4956 73.9963 19.4971 74.1044 18.8728 74.2866ZM174.147 93.8598V106.364H169.731H165.314L164.927 104.938C164.184 102.203 162.176 98.8172 159.923 96.5032C152.236 88.6068 139.494 88.4581 131.606 96.1731C129.198 98.5282 126.716 102.704 126.245 105.195L126.024 106.364H123.506H120.988V93.8598V81.3558H147.568H174.147V93.8598ZM59.532 99.268C66.5773 102.448 68.8642 111.349 64.2414 117.598C60.814 122.231 54.0464 123.807 48.7816 121.198C40.0049 116.848 39.7337 104.353 48.3148 99.6908C51.9466 97.7175 55.7775 97.5732 59.532 99.268ZM147.521 98.269C152.912 99.1365 156.743 102.914 157.791 108.396C158.649 112.881 156.282 118.119 152.299 120.55C145.758 124.541 137.597 122.116 134.333 115.21C133.561 113.578 133.426 112.838 133.426 110.25C133.426 107.663 133.561 106.922 134.333 105.291C136.077 101.6 139.542 98.905 143.359 98.2697C144.268 98.1183 145.089 97.978 145.183 97.9574C145.276 97.9371 146.329 98.0774 147.521 98.269Z" fill="#032E3C" stroke="white" stroke-width="3" mask="url(#path-1-inside-1)"/>
</svg>
