<svg width="672" height="739" viewBox="0 0 672 739" fill="none" xmlns="http://www.w3.org/2000/svg">
<path fill-rule="evenodd" clip-rule="evenodd" d="M473.437 18.0385C543.763 28.9288 605.479 60.7173 668.16 94.4044C736.156 130.947 818.871 154.907 855.006 223.107C891.564 292.104 881.227 378.055 857.939 452.582C836.586 520.913 782.166 570.368 730.879 620.327C683.54 666.441 635.014 712.904 571.594 731.513C508.177 750.122 443.4 728.761 377.478 724.027C291.288 717.838 195.94 748.297 124.689 699.421C50.3085 648.398 -4.84016 555.35 0.336484 465.317C5.46484 376.124 108.241 328.594 150.536 249.892C188.899 178.507 169.822 74.7027 235.659 27.4296C301.416 -19.7865 393.43 5.64908 473.437 18.0385Z" fill="#FCE7E9"/>
</svg>
