<svg width="641" height="745" viewBox="0 0 641 745" fill="none" xmlns="http://www.w3.org/2000/svg">
<path fill-rule="evenodd" clip-rule="evenodd" d="M66.1276 42.3557C24.4899 127.143 -20.6121 225.489 11.0827 314.486C42.4543 402.575 161.452 418.606 224.667 487.524C286.229 554.64 293.22 667.278 373.734 709.853C457.518 754.158 567.422 755.834 652.268 713.637C734.538 672.722 762.669 573.036 808.703 493.53C846.654 427.984 885.612 364.28 897.825 289.53C910.313 213.097 905.547 135.458 879.102 62.6564C850.882 -15.0316 807.398 -87.0926 742.444 -138.226C673.039 -192.863 589.638 -230.72 501.399 -234.68C410.478 -238.761 321.149 -209.441 244.381 -160.581C166.85 -111.235 106.635 -40.1291 66.1276 42.3557Z" fill="#FCE7E9"/>
</svg>
