<svg width="18" height="16" viewBox="0 0 18 16" fill="none" xmlns="http://www.w3.org/2000/svg">
<path d="M18 11.7116C18 10.6583 17.6845 9.64127 17.0877 8.77041C16.6585 8.14403 16.1057 7.62387 15.4651 7.23732C16.2193 6.52309 16.6912 5.51359 16.6912 4.39532C16.6912 2.23599 14.9344 0.479211 12.7751 0.479211C11.4947 0.479211 10.2953 1.11245 9.56677 2.15196C9.38164 2.12499 9.1925 2.11045 8.99998 2.11045C8.80745 2.11045 8.61836 2.12504 8.43323 2.15196C7.70464 1.11245 6.50523 0.479211 5.22488 0.479211C3.06555 0.479211 1.30877 2.23599 1.30877 4.39532C1.30877 5.51359 1.78066 6.52309 2.5349 7.23732C1.89427 7.62382 1.34148 8.14403 0.912267 8.77036C0.315461 9.64127 0 10.6583 0 11.7116V13.8898H3.77515V15.521H14.2249V13.8898H18V11.7116H18ZM12.7751 1.44575C14.4015 1.44575 15.7247 2.76892 15.7247 4.39537C15.7247 6.02182 14.4015 7.34499 12.7751 7.34499C12.746 7.34499 12.7168 7.34455 12.6877 7.34369C12.6899 7.3375 12.6917 7.33117 12.6939 7.32498C12.7442 7.18223 12.7862 7.03562 12.8199 6.88586C12.8223 6.87523 12.825 6.86469 12.8273 6.85401C12.836 6.81361 12.8437 6.77283 12.8512 6.73195C12.8547 6.71262 12.8583 6.69334 12.8616 6.67396C12.8677 6.63747 12.8732 6.60084 12.8782 6.56407C12.8818 6.5385 12.885 6.51294 12.888 6.48733C12.8918 6.45485 12.8955 6.42233 12.8986 6.38962C12.9017 6.35622 12.904 6.32278 12.9062 6.2893C12.908 6.26291 12.9101 6.23662 12.9113 6.21009C12.914 6.15321 12.9155 6.09624 12.9157 6.03922C12.9157 6.03501 12.916 6.03091 12.916 6.02665C12.916 6.02438 12.9158 6.02211 12.9158 6.01984C12.9157 5.96161 12.9141 5.90372 12.9114 5.84602C12.9107 5.82925 12.9097 5.81253 12.9087 5.79581C12.9058 5.74676 12.9021 5.69795 12.8975 5.64938C12.8965 5.63837 12.8956 5.62735 12.8945 5.61638C12.7484 4.20487 11.8567 2.99672 10.5703 2.43789C11.1247 1.81514 11.9265 1.44575 12.7751 1.44575ZM7.97941 3.25897C7.98884 3.25554 7.99836 3.2523 8.00778 3.24892C8.03711 3.23843 8.06669 3.22848 8.09641 3.21886C8.11893 3.21166 8.14159 3.2047 8.1644 3.19804C8.18097 3.19315 8.1976 3.18847 8.21427 3.18383C8.24404 3.17566 8.27395 3.16769 8.30415 3.16039C8.52741 3.10617 8.76024 3.07674 8.99988 3.07674C9.23971 3.07693 9.47264 3.10641 9.69594 3.16063C9.72595 3.16788 9.75567 3.17581 9.7853 3.18392C9.80221 3.18861 9.81912 3.19335 9.83589 3.19833C9.85841 3.20495 9.88083 3.21181 9.90311 3.21891C9.93322 3.22862 9.96313 3.23868 9.9928 3.24931C10.0019 3.25255 10.0111 3.25564 10.0202 3.25897C11.0066 3.62377 11.7462 4.50168 11.9136 5.56709C11.9149 5.57559 11.9162 5.58415 11.9174 5.5927C11.9228 5.6288 11.9273 5.66519 11.9313 5.70167C11.9327 5.71511 11.9343 5.72849 11.9356 5.74197C11.9388 5.77527 11.9411 5.80881 11.9433 5.84244C11.9441 5.85684 11.9453 5.87119 11.946 5.88564C11.9481 5.9286 11.9492 5.9718 11.9493 6.01525C11.9493 6.01902 11.9495 6.02269 11.9495 6.02646C11.9495 6.0282 11.9495 6.02999 11.9495 6.03173C11.9494 6.07377 11.9481 6.11552 11.9463 6.15713C11.9457 6.17022 11.9451 6.18332 11.9443 6.19637C11.9421 6.23657 11.9391 6.27659 11.9352 6.31631C11.9337 6.33168 11.9317 6.347 11.9299 6.36231C11.927 6.38802 11.9237 6.41368 11.9201 6.4392C11.9173 6.45906 11.9145 6.47897 11.9113 6.49873C11.9064 6.52884 11.901 6.55875 11.8952 6.58857C11.8901 6.6151 11.8844 6.64153 11.8785 6.66792C11.875 6.68382 11.8713 6.69971 11.8675 6.71552C11.8581 6.75471 11.8477 6.79366 11.8367 6.83246C11.8323 6.84788 11.8282 6.86339 11.8236 6.87866C11.8169 6.90089 11.8096 6.92292 11.8024 6.94496C11.7966 6.9626 11.7907 6.98014 11.7845 6.99763C11.7776 7.0175 11.7707 7.03741 11.7634 7.05712C11.7508 7.09061 11.7377 7.12381 11.724 7.15672C11.7179 7.17141 11.7115 7.18595 11.7051 7.2006C11.6932 7.228 11.6809 7.25525 11.6682 7.28222C11.6667 7.28541 11.6652 7.28859 11.6637 7.29178C11.6591 7.30135 11.6545 7.31097 11.6498 7.32054C11.6355 7.34973 11.6207 7.37857 11.6054 7.40718C11.5994 7.4183 11.5937 7.42956 11.5876 7.44062C11.5872 7.44135 11.5868 7.44202 11.5864 7.4427C11.5697 7.47315 11.5523 7.50311 11.5345 7.53287C11.5275 7.54467 11.5205 7.5565 11.5133 7.56815C11.494 7.59951 11.4741 7.63054 11.4537 7.66108C11.441 7.68007 11.4277 7.69868 11.4146 7.71738C11.4034 7.73323 11.3923 7.74913 11.3808 7.76473C11.366 7.78493 11.3509 7.80489 11.3355 7.82475C11.3251 7.83824 11.3145 7.85162 11.3039 7.86496C11.2877 7.88526 11.2713 7.90546 11.2545 7.92532C11.2442 7.93764 11.2335 7.94972 11.2229 7.96185C11.2055 7.98181 11.1882 8.00181 11.1703 8.02129C11.1596 8.03284 11.1486 8.04395 11.1378 8.05536C11.1087 8.08604 11.0789 8.11605 11.0486 8.14548C11.0306 8.16293 11.0126 8.18042 10.9942 8.19738C10.9814 8.20913 10.9683 8.22053 10.9553 8.23208C10.9342 8.25088 10.9128 8.26948 10.8911 8.28765C10.8801 8.29688 10.869 8.30602 10.8579 8.3151C10.8316 8.33646 10.805 8.35738 10.778 8.37787C10.7707 8.38343 10.7634 8.38909 10.756 8.39459C10.2651 8.75959 9.65733 8.97594 8.99993 8.97594C8.34247 8.97594 7.73465 8.75954 7.24368 8.39445C7.23643 8.38904 7.22932 8.38348 7.22212 8.37802C7.19501 8.35748 7.16829 8.33641 7.14195 8.31496C7.13089 8.30592 7.11982 8.29688 7.1089 8.2877C7.0871 8.26943 7.06575 8.25073 7.04448 8.23189C7.03158 8.22038 7.01853 8.20908 7.00582 8.19738C6.98732 8.18037 6.96934 8.16283 6.95126 8.14539C6.92077 8.11586 6.89096 8.08575 6.86177 8.05497C6.85109 8.04371 6.84017 8.03274 6.82968 8.02134C6.81175 8.00181 6.7944 7.98176 6.77701 7.9618C6.76642 7.94967 6.75579 7.93764 6.7454 7.92532C6.72863 7.90546 6.7123 7.88526 6.69606 7.86501C6.68543 7.85167 6.67485 7.83828 6.66441 7.82475C6.64909 7.80494 6.63397 7.78498 6.61913 7.76478C6.60768 7.74913 6.59652 7.73318 6.58535 7.71728C6.57221 7.69863 6.55897 7.68007 6.54631 7.66113C6.52577 7.63044 6.50581 7.59932 6.48643 7.56786C6.47933 7.55631 6.47247 7.54467 6.46551 7.53302C6.44748 7.50282 6.42985 7.47247 6.41288 7.44159C6.40665 7.43023 6.40075 7.41868 6.39462 7.40728C6.37935 7.37857 6.36441 7.34963 6.35006 7.32039C6.34494 7.31 6.33996 7.29952 6.33498 7.28908C6.33421 7.28748 6.33349 7.28589 6.33276 7.28429C6.31938 7.25607 6.30657 7.22756 6.29405 7.19881C6.28811 7.18513 6.28207 7.17151 6.27637 7.15778C6.26235 7.12415 6.24897 7.09022 6.23616 7.05601C6.22925 7.03755 6.22287 7.0189 6.21635 7.00029C6.20963 6.9812 6.20316 6.96197 6.19683 6.94269C6.19001 6.92181 6.18315 6.90094 6.17677 6.87996C6.16725 6.8486 6.15826 6.81705 6.14981 6.7853C6.14386 6.76302 6.1385 6.74055 6.13304 6.71813C6.12878 6.70049 6.12468 6.68285 6.12076 6.66511C6.11593 6.64337 6.11105 6.62167 6.1067 6.59983C6.09998 6.56581 6.09385 6.53159 6.08834 6.49719C6.08534 6.47863 6.08273 6.46003 6.08007 6.44147C6.07616 6.41397 6.07263 6.38633 6.06949 6.35859C6.06794 6.34492 6.06616 6.33124 6.06475 6.31757C6.06074 6.27683 6.0577 6.2358 6.05538 6.19463C6.0547 6.18279 6.05417 6.17095 6.05364 6.15911C6.05166 6.11509 6.05026 6.07092 6.05026 6.02646C6.05026 5.97881 6.05161 5.9315 6.05388 5.88439C6.05451 5.87158 6.05557 5.85887 6.0563 5.84611C6.05842 5.81074 6.06099 5.77546 6.06437 5.74038C6.06553 5.72815 6.06693 5.71598 6.06823 5.7038C6.07239 5.66582 6.07708 5.62803 6.08268 5.59048C6.08375 5.58318 6.08481 5.57583 6.08597 5.56854C6.25283 4.5025 6.99258 3.62401 7.97941 3.25897ZM2.27526 4.39537C2.27526 2.76896 3.59842 1.44575 5.22488 1.44575C6.0736 1.44575 6.87535 1.81519 7.42968 2.4378C6.14285 2.99681 5.25092 4.20555 5.10532 5.61764C5.10431 5.6272 5.10358 5.63682 5.10267 5.64644C5.09783 5.69674 5.09402 5.74724 5.09112 5.79803C5.09025 5.81349 5.08928 5.82891 5.08855 5.84442C5.0858 5.90488 5.08392 5.96552 5.08392 6.0266C5.08392 6.08827 5.0857 6.14978 5.0886 6.21125C5.08976 6.23599 5.09179 6.26049 5.09339 6.28509C5.09576 6.32047 5.09817 6.35584 5.10146 6.39112C5.10436 6.42248 5.10793 6.45365 5.11161 6.48482C5.11479 6.51197 5.11818 6.53904 5.12195 6.5661C5.12688 6.60162 5.13219 6.63699 5.13804 6.67222C5.14157 6.69314 5.14543 6.71402 5.14925 6.73489C5.1565 6.77433 5.16389 6.81366 5.1723 6.85266C5.1751 6.86551 5.17829 6.87827 5.18119 6.89108C5.214 7.0362 5.25474 7.17827 5.30326 7.31682C5.30635 7.32576 5.30906 7.33479 5.3122 7.34369C5.28306 7.34455 5.25387 7.34499 5.22478 7.34499C3.59842 7.34494 2.27526 6.02177 2.27526 4.39537ZM4.5854 10.5568C4.57477 10.5735 4.56462 10.5906 4.55418 10.6075C4.5321 10.6431 4.51021 10.6789 4.48904 10.715C4.4772 10.7351 4.4658 10.7554 4.4543 10.7757C4.43526 10.8092 4.41646 10.8428 4.39819 10.8767C4.38669 10.898 4.37538 10.9194 4.36417 10.9408C4.34658 10.9745 4.32943 11.0084 4.31261 11.0423C4.30203 11.0637 4.29149 11.085 4.28125 11.1065C4.26414 11.1423 4.24766 11.1784 4.23138 11.2145C4.22253 11.2342 4.21345 11.2537 4.2049 11.2735C4.18605 11.3168 4.16807 11.3604 4.15043 11.4042C4.14526 11.417 4.13975 11.4297 4.13473 11.4425C4.11235 11.4993 4.09095 11.5566 4.07065 11.6142C4.06601 11.6273 4.06186 11.6407 4.05726 11.6539C4.04199 11.6982 4.02711 11.7427 4.01305 11.7874C4.00662 11.808 4.00068 11.8286 3.99449 11.8492C3.98313 11.8871 3.97197 11.925 3.96149 11.9632C3.95525 11.9859 3.94931 12.0087 3.94336 12.0315C3.9338 12.0681 3.92461 12.1048 3.91592 12.1417C3.91036 12.1651 3.90495 12.1884 3.89978 12.2118C3.89146 12.2491 3.88368 12.2866 3.87619 12.3242C3.8717 12.3468 3.86706 12.3693 3.86286 12.392C3.85527 12.4329 3.84845 12.4739 3.84183 12.5151C3.83874 12.5344 3.83531 12.5536 3.83241 12.573C3.82342 12.6334 3.81526 12.6939 3.80839 12.7548C3.8083 12.7555 3.80825 12.7562 3.8082 12.7569C3.80197 12.8123 3.7966 12.8677 3.79211 12.9233H0.966487V11.7116C0.966487 10.0561 1.91819 8.56987 3.40919 7.86346C3.95235 8.14896 4.56979 8.31148 5.22483 8.31148C5.41426 8.31148 5.60427 8.29746 5.79283 8.26972C5.82222 8.31162 5.85208 8.35308 5.88301 8.39377C5.89345 8.40745 5.90427 8.42079 5.9149 8.43432C5.94544 8.47336 5.97642 8.51197 6.00841 8.54981C6.0215 8.56532 6.03494 8.5805 6.04828 8.59582C6.07824 8.63022 6.10868 8.6642 6.1398 8.69749C6.15614 8.71503 6.17276 8.73228 6.18938 8.74954C6.21785 8.77887 6.2467 8.80777 6.27603 8.83623C6.28705 8.84691 6.29744 8.85822 6.30855 8.8688C6.26656 8.89417 6.22495 8.92017 6.18373 8.9467C6.17701 8.951 6.17044 8.95554 6.16377 8.95989C6.12255 8.98666 6.08176 9.01402 6.04137 9.0419C6.0274 9.05156 6.01348 9.06133 5.99957 9.07109C5.96356 9.09646 5.92795 9.12226 5.89262 9.1485C5.88146 9.15681 5.87015 9.16493 5.85909 9.17334C5.81414 9.20731 5.76973 9.24191 5.7259 9.27729C5.71634 9.28502 5.70696 9.29299 5.69739 9.30082C5.6625 9.32938 5.62795 9.35842 5.59383 9.3879C5.58059 9.39931 5.56745 9.41081 5.5543 9.42236C5.52014 9.45246 5.48641 9.483 5.45302 9.51398C5.44432 9.52205 5.43543 9.52997 5.42678 9.53814C5.3858 9.5767 5.34545 9.61599 5.30568 9.65596C5.29533 9.66635 5.28523 9.67693 5.27499 9.68737C5.24455 9.71844 5.21444 9.74985 5.18472 9.7817C5.17293 9.79436 5.16114 9.80702 5.14944 9.81982C5.116 9.85636 5.08305 9.89337 5.05062 9.93092C5.04555 9.93682 5.04028 9.94252 5.0352 9.94846C4.99824 9.99162 4.96209 10.0356 4.92643 10.08C4.91647 10.0924 4.90676 10.1049 4.89695 10.1175C4.87013 10.1515 4.8437 10.1859 4.8177 10.2207C4.80764 10.2341 4.79754 10.2474 4.78764 10.261C4.75362 10.3074 4.72003 10.3541 4.68741 10.4017C4.65238 10.4529 4.61846 10.5046 4.5854 10.5568ZM4.74163 14.5545V13.8898V13.3428C4.74163 13.2892 4.74265 13.2357 4.74463 13.1824C4.74526 13.1649 4.74666 13.1475 4.74753 13.13C4.74927 13.0944 4.75091 13.0588 4.75352 13.0234C4.75512 13.0019 4.75753 12.9806 4.75947 12.9591C4.76227 12.9279 4.76478 12.8966 4.76826 12.8656C4.77082 12.8429 4.77416 12.8203 4.77706 12.7977C4.78082 12.7681 4.78435 12.7386 4.7887 12.7092C4.79223 12.6858 4.79648 12.6626 4.80035 12.6393C4.80508 12.611 4.80948 12.5826 4.8148 12.5544C4.81929 12.5306 4.82451 12.507 4.82939 12.4833C4.835 12.4559 4.84036 12.4285 4.8465 12.4013C4.85191 12.3773 4.8581 12.3536 4.86389 12.3297C4.87042 12.3032 4.87665 12.2764 4.88366 12.25C4.89004 12.226 4.89709 12.2022 4.90386 12.1784C4.9112 12.1524 4.91836 12.1264 4.92618 12.1007C4.93348 12.0767 4.9415 12.0529 4.94919 12.0291C4.9574 12.0038 4.96538 11.9785 4.97403 11.9534C4.98224 11.9297 4.99108 11.9062 4.99969 11.8826C5.00877 11.8578 5.01766 11.8329 5.02718 11.8082C5.03627 11.7848 5.04593 11.7616 5.05536 11.7383C5.06526 11.714 5.07502 11.6896 5.08537 11.6655C5.09537 11.6422 5.1059 11.6192 5.11629 11.5962C5.12697 11.5725 5.13756 11.5487 5.14867 11.5252C5.15954 11.5022 5.17095 11.4796 5.18221 11.4568C5.19371 11.4336 5.20506 11.4104 5.21695 11.3874C5.22869 11.3648 5.24092 11.3425 5.25305 11.3201C5.26533 11.2974 5.27745 11.2748 5.29012 11.2524C5.30268 11.2301 5.31573 11.2082 5.32863 11.1862C5.34168 11.1641 5.35463 11.1419 5.36811 11.12C5.3815 11.0982 5.39532 11.0767 5.40909 11.0552C5.42291 11.0336 5.43663 11.012 5.45084 10.9906C5.46505 10.9693 5.47964 10.9482 5.49424 10.9271C5.50878 10.9061 5.52328 10.8851 5.53816 10.8643C5.55314 10.8434 5.56856 10.8228 5.58398 10.8022C5.59925 10.7818 5.61447 10.7613 5.63008 10.7412C5.64583 10.7208 5.66197 10.7008 5.67811 10.6807C5.69411 10.6608 5.71015 10.6409 5.72648 10.6213C5.74296 10.6016 5.75978 10.5821 5.7766 10.5627C5.79337 10.5433 5.81018 10.5239 5.82734 10.5048C5.84449 10.4856 5.86203 10.4668 5.87953 10.4479C5.89702 10.4291 5.91451 10.4104 5.93235 10.392C5.95023 10.3734 5.96844 10.3552 5.98671 10.3369C6.00493 10.3187 6.02324 10.3006 6.0418 10.2827C6.06031 10.2648 6.07911 10.2473 6.098 10.2297C6.11695 10.2121 6.13598 10.1946 6.15527 10.1773C6.1745 10.1601 6.19393 10.1431 6.2135 10.1262C6.23312 10.1093 6.25288 10.0924 6.27284 10.0758C6.2927 10.0593 6.31276 10.043 6.33295 10.0268C6.3533 10.0105 6.37379 9.99428 6.39447 9.97828C6.41491 9.96253 6.43555 9.94697 6.45628 9.9315C6.47735 9.9158 6.49856 9.90028 6.52002 9.88497C6.54099 9.86994 6.56216 9.85515 6.58347 9.84046C6.60531 9.82543 6.62725 9.81059 6.64938 9.79595C6.67089 9.78174 6.69258 9.76768 6.71438 9.75381C6.73695 9.73946 6.75966 9.7253 6.78252 9.71138C6.80455 9.69795 6.82673 9.68466 6.84906 9.67161C6.87225 9.65803 6.89564 9.64465 6.91918 9.63146C6.94175 9.6188 6.96446 9.60628 6.98731 9.594C7.01124 9.58115 7.03535 9.56854 7.05961 9.55607C7.08261 9.54423 7.10571 9.53258 7.129 9.52113C7.14732 9.51214 7.16583 9.50344 7.18433 9.4947C7.72745 9.7802 8.34499 9.94267 8.99998 9.94267C9.65501 9.94267 10.2725 9.7802 10.8156 9.4947C10.834 9.5034 10.8523 9.51205 10.8705 9.52094C10.8941 9.53254 10.9174 9.54433 10.9407 9.55626C10.9647 9.56859 10.9886 9.58105 11.0123 9.59376C11.0353 9.60618 11.0583 9.61884 11.0811 9.63165C11.1044 9.6447 11.1275 9.65789 11.1504 9.67132C11.173 9.68456 11.1955 9.69805 11.2178 9.71167C11.2404 9.72545 11.2628 9.73936 11.285 9.75352C11.3071 9.76759 11.3291 9.78179 11.3509 9.79624C11.3728 9.81069 11.3944 9.82538 11.416 9.84022C11.4375 9.85505 11.4589 9.86999 11.4801 9.88516C11.5013 9.90033 11.5223 9.9157 11.5432 9.93126C11.5642 9.94682 11.585 9.96253 11.6056 9.97847C11.6261 9.99432 11.6464 10.0104 11.6666 10.0266C11.6869 10.0428 11.7071 10.0592 11.7271 10.0758C11.747 10.0924 11.7666 10.1091 11.7861 10.126C11.8058 10.143 11.8254 10.16 11.8447 10.1774C11.8638 10.1945 11.8827 10.2119 11.9015 10.2294C11.9206 10.2471 11.9395 10.2648 11.9582 10.2829C11.9767 10.3006 11.9948 10.3186 12.0128 10.3366C12.0312 10.355 12.0495 10.3734 12.0676 10.392C12.0852 10.4104 12.1027 10.429 12.12 10.4476C12.1377 10.4666 12.1554 10.4856 12.1727 10.5049C12.1897 10.5239 12.2063 10.543 12.223 10.5623C12.2399 10.5819 12.2569 10.6015 12.2735 10.6214C12.2898 10.6409 12.3057 10.6606 12.3216 10.6804C12.3378 10.7006 12.354 10.7207 12.3699 10.7412C12.3854 10.7613 12.4006 10.7816 12.4157 10.802C12.4312 10.8227 12.4467 10.8434 12.4617 10.8644C12.4766 10.885 12.491 10.906 12.5055 10.9269C12.5201 10.9481 12.5348 10.9692 12.5491 10.9907C12.5632 11.0119 12.5768 11.0333 12.5905 11.0548C12.6044 11.0765 12.6183 11.0981 12.6318 11.1201C12.6451 11.1418 12.658 11.1638 12.6709 11.1858C12.684 11.2079 12.6971 11.23 12.7097 11.2524C12.7224 11.2747 12.7344 11.2973 12.7467 11.3198C12.7588 11.3423 12.7711 11.3647 12.7829 11.3874C12.7947 11.4103 12.8061 11.4335 12.8176 11.4567C12.8288 11.4794 12.8403 11.5021 12.8511 11.5251C12.8623 11.5486 12.8728 11.5724 12.8834 11.596C12.8939 11.6192 12.9044 11.6422 12.9144 11.6655C12.9247 11.6894 12.9344 11.7137 12.9442 11.7378C12.9538 11.7613 12.9635 11.7847 12.9727 11.8084C12.9821 11.8329 12.991 11.8577 13 11.8824C13.0087 11.906 13.0175 11.9296 13.0257 11.9534C13.0344 11.9786 13.0425 12.004 13.0507 12.0294C13.0584 12.0531 13.0663 12.0768 13.0736 12.1007C13.0815 12.1264 13.0886 12.1525 13.0959 12.1784C13.1027 12.2023 13.1098 12.226 13.1161 12.25C13.1232 12.2764 13.1294 12.3031 13.1359 12.3297C13.1418 12.3536 13.1479 12.3773 13.1533 12.4013C13.1594 12.4285 13.1648 12.4559 13.1704 12.4832C13.1753 12.5069 13.1805 12.5305 13.185 12.5544C13.1903 12.5823 13.1946 12.6105 13.1994 12.6386C13.2033 12.6622 13.2076 12.6856 13.2112 12.7092C13.2155 12.7384 13.219 12.7678 13.2228 12.797C13.2257 12.8199 13.2291 12.8426 13.2316 12.8656C13.2351 12.8966 13.2376 12.9279 13.2404 12.9591C13.2424 12.9805 13.2448 13.0018 13.2464 13.0233C13.249 13.0588 13.2506 13.0944 13.2524 13.13C13.2532 13.1475 13.2546 13.1649 13.2553 13.1824C13.2573 13.2357 13.2583 13.2891 13.2583 13.3428V13.8897V14.5545H4.74163ZM14.2081 12.9233C14.1986 12.8056 14.185 12.6886 14.1677 12.5723C14.1649 12.5539 14.1616 12.5357 14.1587 12.5173C14.152 12.4752 14.145 12.4332 14.1372 12.3914C14.1331 12.3693 14.1286 12.3474 14.1242 12.3254C14.1166 12.2872 14.1087 12.249 14.1002 12.2111C14.0951 12.1882 14.0898 12.1652 14.0844 12.1424C14.0755 12.1051 14.0663 12.068 14.0566 12.0309C14.0507 12.0084 14.0449 11.986 14.0387 11.9636C14.0281 11.925 14.0168 11.8867 14.0053 11.8483C13.9992 11.8281 13.9934 11.8079 13.9871 11.7877C13.9728 11.7424 13.9578 11.6972 13.9423 11.6522C13.9379 11.6396 13.9339 11.6269 13.9295 11.6143C13.9091 11.5566 13.8877 11.4992 13.8652 11.4421C13.8604 11.4299 13.8551 11.4178 13.8502 11.4056C13.8324 11.3613 13.8141 11.3171 13.795 11.2732C13.7866 11.2537 13.7776 11.2345 13.7689 11.2151C13.7525 11.1786 13.7359 11.1422 13.7186 11.106C13.7085 11.0849 13.698 11.0638 13.6876 11.0428C13.6707 11.0085 13.6533 10.9743 13.6356 10.9404C13.6245 10.9191 13.6133 10.8979 13.6019 10.8768C13.5835 10.8429 13.5647 10.8091 13.5456 10.7755C13.5341 10.7553 13.5227 10.7351 13.511 10.715C13.4897 10.6787 13.4677 10.6428 13.4455 10.607C13.4351 10.5903 13.4251 10.5734 13.4146 10.5568C13.3814 10.5047 13.3475 10.4529 13.3124 10.4017C13.2798 10.3541 13.2462 10.3073 13.2122 10.2609C13.2023 10.2475 13.1923 10.2342 13.1823 10.2209C13.1562 10.1859 13.1296 10.1514 13.1027 10.1172C13.093 10.1049 13.0834 10.0924 13.0735 10.0802C13.0378 10.0356 13.0015 9.99157 12.9645 9.94832C12.9596 9.94271 12.9546 9.93725 12.9498 9.93165C12.9171 9.89381 12.8839 9.8565 12.8502 9.81968C12.8386 9.80702 12.827 9.7945 12.8153 9.78194C12.7854 9.7499 12.7551 9.71825 12.7245 9.68703C12.7144 9.67674 12.7045 9.66635 12.6943 9.65615C12.6544 9.61614 12.6139 9.5767 12.5728 9.53804C12.5644 9.53007 12.5557 9.52234 12.5472 9.51441C12.5136 9.48325 12.4797 9.45256 12.4454 9.42231C12.4323 9.41081 12.4192 9.3994 12.406 9.388C12.3718 9.35847 12.3373 9.32943 12.3023 9.30082C12.2928 9.29304 12.2835 9.28507 12.2739 9.27734C12.2301 9.24196 12.1857 9.20736 12.1408 9.17344C12.1296 9.16498 12.1182 9.15677 12.1069 9.14841C12.0718 9.12231 12.0363 9.0966 12.0005 9.07138C11.9864 9.06147 11.9724 9.05161 11.9582 9.04185C11.9182 9.01426 11.8779 8.9872 11.8371 8.96071C11.8299 8.95607 11.8229 8.95124 11.8158 8.94665C11.7746 8.92022 11.7332 8.89427 11.6912 8.86895C11.702 8.85865 11.7122 8.84768 11.7229 8.83725C11.7528 8.80825 11.7823 8.77877 11.8112 8.74881C11.8274 8.73209 11.8435 8.71532 11.8594 8.69831C11.891 8.66449 11.9219 8.62998 11.9523 8.59504C11.9653 8.58021 11.9783 8.56547 11.991 8.55039C12.0234 8.51202 12.0549 8.47283 12.0859 8.43316C12.096 8.42021 12.1064 8.40745 12.1164 8.39435C12.1474 8.35352 12.1774 8.31186 12.207 8.26982C12.3955 8.29751 12.5855 8.31152 12.775 8.31152C13.43 8.31152 14.0475 8.14906 14.5906 7.86351C16.0817 8.56991 17.0333 10.0561 17.0333 11.7116V12.9233H14.2081Z" fill="#3978BF"/>
</svg>
