<svg width="131" height="130" viewBox="0 0 131 130" fill="none" xmlns="http://www.w3.org/2000/svg">
<path fill-rule="evenodd" clip-rule="evenodd" d="M61.7837 0.337868C54.111 1.99322 48.3368 8.36956 47.584 16.0186C46.663 25.3764 52.1821 35.351 62.6701 43.2818C63.9418 44.2434 64.0844 44.4103 64.2888 45.1726C64.409 45.6203 64.212 45.9709 63.3375 46.8659C61.4052 48.8439 60.8875 50.5319 61.5361 52.7417C61.9336 54.0964 62.8639 55.1557 65.4134 57.1567C66.0506 57.657 66.5717 58.2293 66.5717 58.4286C66.5717 58.6282 65.8582 59.9914 64.9859 61.4578C64.1137 62.9244 63.3365 64.3749 63.259 64.6814C63.069 65.4323 63.7686 66.7085 64.5265 66.9945C66.302 67.6641 66.9463 67.1357 69.258 63.1136L70.9957 60.0898L70.9167 58.2366C70.8462 56.5868 70.7546 56.281 70.0837 55.4547C69.6694 54.9438 68.545 53.8922 67.5852 53.1174C66.374 52.1396 65.8402 51.5448 65.8402 51.173C65.8402 50.8505 66.3242 50.1645 67.0568 49.4487C68.5321 48.0072 68.8408 47.1634 68.7298 44.8782L68.6445 43.1246L70.8545 41.2844C76.8138 36.3228 81.2044 29.9109 82.8246 23.8042C83.6479 20.7011 83.7664 16.0091 83.0843 13.5233C81.597 8.10177 77.7946 3.64131 72.79 1.44724C69.6621 0.075888 65.1201 -0.381795 61.7837 0.337868ZM69.2541 4.97492C72.0645 5.72991 74.7118 7.5899 76.4856 10.0556C78.0985 12.2976 78.7959 14.3233 78.9485 17.2087C79.1997 21.9549 77.7749 26.1154 74.1644 31.1784C72.6108 33.357 67.2835 38.7234 66.0204 39.3821C65.3981 39.7067 65.3047 39.6651 63.6618 38.3318C59.7067 35.1219 55.6539 30.1182 53.8989 26.2787C52.6047 23.4469 52.0944 21.1948 52.0775 18.2404C52.0656 16.1366 52.1753 15.2251 52.6016 13.8862C54.7965 6.99168 62.1372 3.0634 69.2541 4.97492ZM64.3358 9.29726C63.4016 9.80042 63.0144 11.0951 63.5121 12.0499C63.9705 12.9294 64.4561 13.2132 65.8707 13.4283C66.4574 13.5175 67.2231 13.7333 67.572 13.9075C68.5813 14.4116 69.7038 15.8473 69.8681 16.8444C70.2003 18.8592 70.2905 19.0997 70.8909 19.568C71.7456 20.2349 72.9658 20.1938 73.8127 19.4698C74.435 18.9379 74.495 18.7453 74.4758 17.3398C74.4519 15.6054 73.6947 13.6631 72.4206 12.0673C70.5778 9.7593 66.2381 8.27231 64.3358 9.29726ZM109.091 9.27162C105.499 10.0868 102.607 11.6817 100.228 14.1603C97.3515 17.1577 95.584 20.6871 94.6062 25.387C94.1533 27.5637 94.0965 28.4568 94.1994 31.7871C94.364 37.1264 95.2629 41.3328 97.3322 46.4501C97.8494 47.7292 98.2728 49.0602 98.2728 49.4078C98.2728 50.1439 97.5907 50.6502 96.2961 50.8747C94.8849 51.1195 93.3189 52.3068 92.5439 53.719C91.5292 55.5686 91.586 57.0532 92.7809 59.9004L93.7166 62.1298L92.7026 63.221C91.4265 64.5943 91.3546 65.4804 92.432 66.5491C93.0799 67.1919 93.3003 67.27 94.1482 67.157C95.4714 66.9809 96.6333 66.0385 97.3941 64.5244C98.3152 62.6908 98.2581 61.1711 97.1754 58.6926C96.706 57.618 96.3219 56.5466 96.3219 56.3115C96.3219 55.7936 97.2154 55.1308 97.9133 55.1308C98.1925 55.1308 98.9853 54.8516 99.6752 54.5108C101.002 53.8545 102.323 52.2417 102.587 50.9548C102.674 50.5322 102.915 50.2463 103.242 50.1771C103.527 50.1168 104.962 49.8345 106.432 49.5498C114.117 48.0614 121.163 44.7021 125.31 40.5495C129.3 36.5526 131.014 32.4576 131 26.949C130.992 23.7118 130.421 21.3397 129.005 18.6548C126.68 14.2488 122.389 10.8017 117.659 9.53989C115.598 8.99004 110.971 8.84514 109.091 9.27162ZM117.282 14.1184C120.383 15.2196 123.451 17.7712 124.919 20.4698C125.824 22.1329 126.561 25.0926 126.556 27.0482C126.545 32.1064 123.731 36.7391 118.693 39.9953C114.948 42.4158 110.252 44.1996 104.832 45.2604C101.584 45.8963 101.878 46.0991 100.633 42.3592C97.6243 33.3205 97.9692 25.3084 101.613 19.5835C103.282 16.962 105.65 15.0565 108.393 14.1293C110.863 13.294 114.946 13.2889 117.282 14.1184ZM15.4843 18.0152C12.5771 18.7001 11.5163 19.0644 9.63181 20.0247C7.90704 20.9038 6.99331 21.5843 5.36437 23.2024C2.9746 25.5764 1.94749 27.1793 0.911595 30.1515C-0.437649 34.0222 -0.277437 39.1545 1.31444 43.0641C3.29283 47.923 7.8985 52.3119 13.9917 55.1443C17.5468 56.797 23.2872 58.4618 27.3112 59.0073C29.8254 59.3479 30.3436 59.5356 30.8376 60.2833C31.1807 60.8027 31.1819 60.9507 30.8505 61.7379C30.3123 63.0156 30.3748 65.2136 30.9825 66.3829C32.06 68.4563 33.829 69.4128 37.2556 69.7744C39.0323 69.9619 39.3791 70.2251 39.5922 71.5464C39.9068 73.4988 42.0432 74.1783 43.4571 72.776C44.1547 72.0839 44.1937 71.9513 44.0642 70.7084C43.7353 67.5453 41.0534 65.2965 37.6021 65.2893C37.2397 65.2886 36.5328 65.1749 36.031 65.0367C34.9226 64.7315 34.689 64.0877 35.2245 62.8163C35.9802 61.0226 35.5757 58.7833 34.2294 57.305L33.3766 56.3686L34.2257 54.1167C37.0598 46.6017 37.7126 38.9583 36.0561 32.6843C34.1316 25.396 29.3555 20.187 23.0438 18.4928C21.6199 18.1105 16.4627 17.7847 15.4843 18.0152ZM114.836 19.5523C113.683 20.6963 113.838 21.5778 115.454 23.064C117.548 24.9891 117.959 26.4736 117.041 28.785C116.626 29.8286 116.589 30.1694 116.817 30.8545C117.159 31.8802 118.25 32.4946 119.362 32.2876C120.287 32.1156 120.759 31.6492 121.283 30.3889C122.639 27.1314 122.045 23.4561 119.754 20.9307C117.804 18.7809 116.096 18.3024 114.836 19.5523ZM22.0035 22.9225C26.5316 24.1681 30.2265 28.2845 31.6979 33.7225C32.3649 36.1878 32.597 40.6981 32.2086 43.6403C31.8508 46.3487 30.9981 49.7624 29.9883 52.5303C29.3681 54.2294 29.1199 54.647 28.7288 54.647C27.5607 54.647 23.0265 53.5681 20.0088 52.5719C11.9496 49.9119 7.07379 45.8429 5.10198 40.1327C4.39115 38.0741 4.32994 34.4013 4.97103 32.2709C6.34198 27.7141 10.0459 24.0657 14.5457 22.8393C16.3441 22.3492 20.07 22.3908 22.0035 22.9225ZM16.2159 27.0627C13.692 27.6031 12.4361 28.5741 12.4361 29.9851C12.4361 31.7987 14.1541 32.626 16.1783 31.7871C17.2727 31.3335 18.7954 31.3216 19.8205 31.759C20.2521 31.9431 21.1278 32.6507 21.7665 33.3314C23.1564 34.8126 24.1053 34.9749 25.3416 33.9427C26.8345 32.6966 26.0822 30.5884 23.4644 28.6822C22.7924 28.1929 21.7845 27.6321 21.2249 27.4364C19.9166 26.9785 17.4639 26.7954 16.2159 27.0627ZM45.5988 42.7632C42.6265 43.7306 40.7252 46.2935 40.731 49.3251C40.7381 53.064 43.637 55.917 47.4292 55.917C51.2231 55.917 54.1244 53.0603 54.1244 49.3251C54.1244 45.6034 51.504 42.8268 47.8194 42.6442C46.9342 42.6002 45.9348 42.6539 45.5988 42.7632ZM78.9039 43.0249C76.3427 44.0489 74.6255 46.5538 74.6214 49.2724C74.6184 51.0407 75.0281 52.1505 76.2118 53.5838C78.6769 56.5679 83.6357 56.7073 86.2242 53.8649C87.5268 52.4348 88.0192 51.1744 88.0255 49.2549C88.0311 47.5348 87.6171 46.3993 86.4117 44.8283C84.9276 42.8943 81.3688 42.0394 78.9039 43.0249ZM49.1145 47.8923C49.8685 48.781 49.907 49.4228 49.2688 50.4611C48.4039 51.8685 46.2453 51.7637 45.4703 50.277C44.6822 48.7653 45.7056 47.148 47.4499 47.148C48.3044 47.148 48.5924 47.2769 49.1145 47.8923ZM83.0102 47.8923C83.7622 48.7789 83.8027 49.4228 83.1706 50.4511C82.3081 51.8542 80.1256 51.7342 79.347 50.2409C78.5752 48.7602 79.6757 47.148 81.458 47.148C82.1869 47.148 82.5105 47.303 83.0102 47.8923ZM48.6485 58.5549C47.2256 59.3268 47.2361 60.0126 48.7636 66.016C50.0928 71.2394 50.2898 71.5802 51.9785 71.5802C53.2241 71.5802 54.1379 70.737 54.1291 69.5954C54.1257 69.1571 53.5828 66.6756 52.923 64.0812C51.9112 60.1031 51.6237 59.2787 51.0868 58.8198C50.4023 58.2346 49.4329 58.1292 48.6485 58.5549ZM77.6673 58.8198C77.1304 59.2787 76.8429 60.1031 75.8311 64.0812C75.1712 66.6756 74.6284 69.1571 74.625 69.5954C74.6162 70.7529 75.5282 71.5802 76.8136 71.5802C78.5164 71.5802 78.7559 71.1421 80.2066 65.3737C81.4417 60.4633 81.4756 60.2417 81.1003 59.5218C80.3978 58.1742 78.8037 57.8483 77.6673 58.8198ZM26.0995 76.4858C25.4857 76.7937 14.3992 91.8798 13.7751 93.2558C13.3338 94.2294 13.6008 95.2246 14.4782 95.8751C15.0978 96.3345 15.5494 96.3819 20.0127 96.454L24.8727 96.5326V111.52C24.8727 123.561 24.9376 126.662 25.2021 127.29C25.5977 128.229 27.064 129.559 27.9862 129.815C28.3527 129.917 45.332 130 65.7182 130H102.784L103.87 129.395C104.669 128.95 105.135 128.449 105.638 127.493L106.32 126.195V111.368V96.5401L111.217 96.4576L116.115 96.3754L116.852 95.5561C117.455 94.8865 117.566 94.5896 117.459 93.9331C117.276 92.8158 105.818 76.8924 104.907 76.4897C103.927 76.0569 26.9615 76.053 26.0995 76.4858ZM81.203 80.9102C81.203 80.9859 79.4419 83.4896 77.2894 86.474L73.3757 91.9002H46.7954C24.6779 91.9002 20.248 91.846 20.4102 91.5767C20.5175 91.3989 22.3034 88.8952 24.3791 86.0129L28.153 80.7726H54.678C69.2668 80.7726 81.203 80.8345 81.203 80.9102ZM106.783 86.2253C108.942 89.2245 110.709 91.7282 110.709 91.7891C110.709 91.8501 107.931 91.9002 104.534 91.9002H98.3596L94.5793 86.6387C92.5005 83.7451 90.7186 81.2414 90.6201 81.075C90.4784 80.8362 91.7492 80.7726 96.6482 80.7726H102.856L106.783 86.2253ZM83.6415 105.568V125.525H56.4518H29.2621V111.017V96.5082L52.2453 96.4419C70.9265 96.3877 75.3197 96.3149 75.7163 96.0522C75.9845 95.8746 77.8412 93.4525 79.8423 90.6698C81.8433 87.8872 83.5169 85.6107 83.561 85.6107C83.6054 85.6107 83.6415 94.5913 83.6415 105.568ZM91.7938 90.5261C93.7402 93.2294 95.5579 95.6436 95.833 95.8906C96.2371 96.2532 96.8482 96.3606 99.0099 96.4492L101.687 96.5585V111.042V125.525H94.8588H88.0309V105.568C88.0309 94.5913 88.0814 85.6107 88.1431 85.6107C88.2045 85.6107 89.8476 87.8226 91.7938 90.5261ZM40.5962 106.035C40.0426 106.364 39.354 107.074 39.0148 107.665C38.4924 108.575 38.4022 109.078 38.3251 111.501C38.2213 114.769 38.4883 115.995 39.5712 117.218C40.9717 118.8 40.4313 118.751 56.5276 118.751H71.1281L72.1996 118.19C73.008 117.765 73.4406 117.305 73.9622 116.315C74.6374 115.032 74.6518 114.926 74.5753 111.717C74.5011 108.603 74.4624 108.381 73.8261 107.428C73.4572 106.876 72.7208 106.204 72.1899 105.935C71.2525 105.461 70.7938 105.447 56.4006 105.449L41.5767 105.451L40.5962 106.035ZM69.9857 112.099V114.397H56.4518H42.9179V112.099V109.801H56.4518H69.9857V112.099Z" fill="#032E3C"/>
</svg>
