<svg width="332" height="118" viewBox="0 0 332 118" fill="none" xmlns="http://www.w3.org/2000/svg">
<path fill-rule="evenodd" clip-rule="evenodd" d="M76.012 2.0057C78.098 1.67142 79.8502 1.58786 81.0183 1.75499C82.2699 1.92213 83.1043 2.17284 83.6049 2.59069C84.1055 3.00854 84.1055 3.50995 83.7718 4.17851C83.438 4.76349 82.6871 5.43205 81.6024 6.01703C79.0158 6.35131 76.5127 7.60485 74.093 9.86123C71.5898 12.1176 69.1701 15.0425 66.8338 18.636C64.4141 22.2295 62.0779 26.408 59.9085 31.0879C57.5722 35.7677 55.4028 40.7819 53.3169 45.9632C51.2309 51.1445 49.3118 56.493 47.3928 62.0085C45.4737 67.5241 43.7215 72.8726 42.1362 78.0539C40.5509 83.2352 39.049 88.1658 37.714 92.7621C36.379 97.3584 35.2108 101.453 34.2096 104.963C33.2083 108.473 32.3739 111.314 31.7064 113.404C31.0389 115.493 30.6217 116.663 30.288 116.914C29.6205 117.415 28.7861 117.749 27.7014 117.833C26.6167 118 25.532 118 24.4473 117.916C23.3626 117.833 22.3614 117.666 21.4435 117.415C20.5257 117.164 19.9417 116.83 19.6079 116.412C19.441 116.245 19.5245 115.409 19.7748 113.989C20.1085 112.484 20.5257 110.646 21.1932 108.39C21.7773 106.133 22.5282 103.543 23.3626 100.785C24.197 97.9434 25.1148 95.102 26.0326 92.1771C28.1186 85.3244 30.6217 77.636 33.4586 69.1119C27.618 57.4122 22.3614 46.7989 17.6888 37.3556C15.6863 33.3442 13.6838 29.3329 11.7647 25.4887C9.84565 21.5609 8.09346 18.051 6.50813 14.8754C4.92281 11.6998 3.5878 9.02553 2.58654 6.9363C1.50185 4.84706 0.917784 3.59352 0.66747 3.25924C0.0834033 2.42355 -0.0834728 1.75499 -3.47719e-05 1.17001C0.0834033 0.668592 0.333717 0.334314 0.66747 0.0836061C1.00122 -0.0835327 1.50185 -0.0835327 2.16935 0.0836061C2.75342 0.334314 3.33749 0.752161 4.00499 1.42072C4.50562 1.92213 5.25656 3.17567 6.34126 5.09777C7.42595 7.10344 8.67752 9.52695 10.0125 12.4519C11.431 15.3768 12.9329 18.636 14.6851 22.2295C16.3538 25.823 18.106 29.5 19.8582 33.1771C21.6104 36.9377 23.2792 40.5312 24.9479 44.2083C26.6167 47.8017 28.202 51.1445 29.537 54.0694C30.9555 57.0779 32.1236 59.585 33.0414 61.5907C34.0427 63.5964 34.7102 64.9335 35.0439 65.5185C37.2133 56.5765 39.5496 48.8046 42.0527 42.2026C44.5559 35.6006 47.059 30.0015 49.6456 25.4051C52.2322 20.7252 54.7353 16.9646 57.3219 14.0397C59.9085 11.1148 62.3282 8.77482 64.581 7.01987C66.9173 5.26491 69.0032 4.01137 71.0057 3.34281C72.8414 2.67426 74.5936 2.17284 76.012 2.0057ZM65.2485 117.331C66.3332 117.331 67.3345 117.081 68.1688 116.579C69.0032 116.078 69.6707 115.409 70.0879 114.574C70.5051 113.738 70.7554 112.652 70.7554 111.565V107.136C70.7554 105.966 70.5051 104.963 70.0879 104.128C69.6707 103.292 69.0032 102.54 68.1688 102.122C67.3345 101.62 66.3332 101.37 65.2485 101.37C64.1638 101.37 63.1626 101.62 62.3282 102.122C61.4938 102.623 60.8263 103.292 60.4091 104.128C59.9919 104.963 59.7416 106.05 59.7416 107.136V111.565C59.7416 112.735 59.9919 113.738 60.4091 114.574C60.8263 115.409 61.4938 116.162 62.3282 116.579C63.1626 117.164 64.1638 117.331 65.2485 117.331ZM65.2485 115.242C65.916 115.242 66.5001 115.075 66.9173 114.824C67.4179 114.574 67.7517 114.156 68.0854 113.571C68.3357 113.069 68.5026 112.401 68.5026 111.732V107.136C68.5026 106.467 68.3357 105.799 68.0854 105.297C67.8351 104.796 67.4179 104.378 66.9173 104.044C66.4166 103.793 65.8326 103.626 65.2485 103.626C64.581 103.626 63.9969 103.793 63.5798 104.044C63.0791 104.295 62.7454 104.713 62.4116 105.297C62.1613 105.799 61.9944 106.467 61.9944 107.136V111.732C61.9944 112.401 62.1613 113.069 62.4116 113.571C62.6619 114.072 63.0791 114.49 63.5798 114.824C63.9969 115.075 64.581 115.242 65.2485 115.242ZM83.1877 108.473V110.562H88.4443C89.3621 110.562 90.1131 110.395 90.7806 109.977C91.4481 109.643 92.0321 109.058 92.3659 108.39C92.7831 107.721 92.95 106.885 92.95 106.05C92.95 105.13 92.7831 104.378 92.3659 103.71C92.0321 103.041 91.4481 102.456 90.7806 102.122C90.1131 101.788 89.2787 101.537 88.3609 101.537H83.1043V103.626H88.4443C88.8615 103.626 89.2787 103.71 89.529 103.96C89.8627 104.128 90.1131 104.462 90.2799 104.796C90.4468 105.13 90.5302 105.632 90.5302 106.05C90.5302 106.551 90.4468 106.969 90.2799 107.303C90.1131 107.637 89.8627 107.972 89.529 108.139C89.1952 108.306 88.8615 108.473 88.4443 108.473H83.1877ZM82.1864 101.537V117.248H84.3558V101.537H82.1864ZM87.443 110.061L89.6124 109.56L93.6175 117.164H91.0309L87.443 110.061ZM114.978 108.724V111.482C114.978 112.652 114.727 113.654 114.31 114.574C113.893 115.493 113.225 116.162 112.391 116.663C111.557 117.164 110.639 117.415 109.471 117.415C108.386 117.415 107.385 117.164 106.55 116.746C105.716 116.329 105.048 115.66 104.631 114.824C104.131 113.989 103.964 112.986 103.964 111.899V107.303C103.964 106.133 104.214 105.13 104.631 104.211C105.048 103.292 105.716 102.623 106.55 102.122C107.385 101.62 108.303 101.37 109.471 101.37C110.388 101.37 111.223 101.537 111.974 101.955C112.725 102.373 113.392 102.874 113.893 103.626C114.394 104.295 114.727 105.13 114.894 106.05H112.474C112.308 105.548 112.141 105.047 111.807 104.713C111.473 104.378 111.139 104.044 110.722 103.877C110.305 103.71 109.888 103.543 109.471 103.543C108.803 103.543 108.219 103.71 107.802 104.044C107.301 104.378 106.968 104.796 106.634 105.381C106.383 105.966 106.217 106.551 106.217 107.303V111.899C106.217 112.568 106.383 113.153 106.634 113.654C106.884 114.156 107.301 114.574 107.802 114.824C108.303 115.075 108.887 115.242 109.554 115.242C110.222 115.242 110.806 115.075 111.223 114.824C111.724 114.574 112.057 114.072 112.391 113.571C112.641 112.986 112.808 112.317 112.808 111.565V110.897H109.638V108.807H114.978V108.724ZM130.247 101.537H132.082L137.84 117.248H135.503L131.165 104.545L126.826 117.248H124.49L130.247 101.537ZM127.16 111.649V113.738H135.42V111.649H127.16ZM148.436 101.537H150.439L158.115 113.654L157.865 113.905V101.453H160.034V117.164H158.032L150.355 105.214L150.606 104.963V117.164H148.436V101.537ZM174.219 117.248H172.049V101.537H174.219V117.248ZM191.323 117.331C190.239 117.331 189.321 117.081 188.487 116.579C187.652 116.078 186.985 115.409 186.567 114.49C186.15 113.571 185.9 112.568 185.9 111.398V107.052C185.9 105.882 186.15 104.88 186.567 103.96C186.985 103.041 187.652 102.373 188.487 101.871C189.321 101.37 190.239 101.119 191.323 101.119C192.241 101.119 193.076 101.286 193.827 101.704C194.577 102.122 195.245 102.623 195.746 103.375C196.246 104.044 196.58 104.88 196.747 105.799H194.494C194.327 105.297 194.16 104.88 193.827 104.462C193.493 104.044 193.159 103.793 192.742 103.543C192.325 103.375 191.907 103.208 191.407 103.208C190.739 103.208 190.239 103.375 189.738 103.71C189.237 104.044 188.904 104.462 188.653 105.047C188.403 105.632 188.236 106.217 188.236 106.969V111.314C188.236 112.067 188.403 112.735 188.653 113.237C188.904 113.822 189.321 114.239 189.738 114.574C190.239 114.908 190.739 115.075 191.407 115.075C191.907 115.075 192.325 114.992 192.742 114.824C193.159 114.657 193.576 114.323 193.827 113.989C194.16 113.571 194.411 113.153 194.494 112.652H196.747C196.58 113.571 196.246 114.407 195.746 115.075C195.245 115.744 194.577 116.329 193.827 116.746C192.992 117.164 192.241 117.331 191.323 117.331ZM222.78 117.331C221.695 117.331 220.777 117.081 219.943 116.579C219.108 116.078 218.441 115.409 218.024 114.49C217.606 113.571 217.356 112.568 217.356 111.398V107.052C217.356 105.882 217.606 104.88 218.024 103.96C218.441 103.041 219.108 102.373 219.943 101.871C220.777 101.37 221.695 101.119 222.78 101.119C223.697 101.119 224.532 101.286 225.283 101.704C226.034 102.122 226.701 102.623 227.202 103.375C227.702 104.044 228.036 104.88 228.203 105.799H225.95C225.783 105.297 225.616 104.88 225.283 104.462C224.949 104.044 224.615 103.793 224.198 103.543C223.781 103.375 223.364 103.208 222.863 103.208C222.195 103.208 221.695 103.375 221.194 103.71C220.694 104.044 220.36 104.462 220.11 105.047C219.859 105.632 219.692 106.217 219.692 106.969V111.314C219.692 112.067 219.859 112.735 220.11 113.237C220.36 113.822 220.777 114.239 221.194 114.574C221.695 114.908 222.195 115.075 222.863 115.075C223.364 115.075 223.781 114.992 224.198 114.824C224.615 114.657 225.032 114.323 225.283 113.989C225.616 113.571 225.867 113.153 225.95 112.652H228.203C228.036 113.571 227.702 114.407 227.202 115.075C226.701 115.744 226.034 116.329 225.283 116.746C224.448 117.164 223.614 117.331 222.78 117.331ZM243.055 101.537H244.891L250.648 117.248H248.312L243.973 104.545L239.634 117.248H237.298L243.055 101.537ZM239.884 111.649V113.738H248.145V111.649H239.884ZM262.913 110.312L269.839 101.537H272.509L262.579 113.654L262.913 110.312ZM261.161 101.537V117.248H263.33V101.537H261.161ZM265.5 108.807L270.506 117.164H273.176L267.252 107.22L265.5 108.807ZM283.606 101.537H285.775V117.248H283.606V101.537ZM284.691 115.075V117.164H293.702V115.075H284.691ZM284.691 108.39V110.479H292.534V108.39H284.691ZM284.691 101.537V103.626H293.702V101.537H284.691ZM309.639 117.331C308.888 117.331 308.137 117.248 307.469 117.081C306.802 116.914 306.134 116.747 305.55 116.412C304.966 116.162 304.382 115.744 303.881 115.326L305.216 113.654C305.8 114.156 306.468 114.574 307.219 114.824C307.97 115.075 308.721 115.242 309.555 115.242C310.723 115.242 311.558 114.992 312.225 114.574C312.809 114.156 313.143 113.571 313.143 112.819C313.143 112.234 312.976 111.816 312.726 111.482C312.475 111.147 312.058 110.897 311.641 110.73C311.224 110.562 310.64 110.395 309.889 110.312H309.805H309.722H309.555C308.47 110.145 307.636 109.894 306.969 109.727C306.301 109.476 305.717 109.058 305.3 108.473C304.799 107.888 304.632 107.052 304.632 105.882C304.632 104.88 304.883 104.044 305.3 103.375C305.717 102.707 306.384 102.122 307.219 101.788C308.053 101.453 309.054 101.286 310.223 101.286C310.807 101.286 311.307 101.37 311.891 101.453C312.475 101.537 312.976 101.788 313.477 102.038C313.977 102.289 314.561 102.623 315.062 102.958L313.81 104.713C313.226 104.295 312.642 103.96 312.058 103.71C311.474 103.459 310.89 103.375 310.306 103.375C309.221 103.375 308.387 103.626 307.803 104.044C307.219 104.462 306.885 105.047 306.885 105.882C306.885 106.384 307.052 106.885 307.302 107.136C307.636 107.47 307.97 107.637 308.47 107.805C308.888 107.972 309.555 108.139 310.389 108.306H310.473H310.556H310.64C310.723 108.306 310.723 108.306 310.723 108.306C311.641 108.473 312.475 108.724 313.06 108.975C313.727 109.225 314.228 109.643 314.645 110.228C315.062 110.813 315.312 111.649 315.312 112.652C315.312 113.571 315.062 114.407 314.645 115.075C314.228 115.744 313.56 116.245 312.642 116.663C311.891 117.164 310.89 117.331 309.639 117.331ZM88.9449 50.2253C89.1952 48.9717 89.1952 47.6346 89.0284 46.2975C88.8615 44.9604 88.4443 43.7068 87.6934 42.5369C86.9424 41.3669 85.7743 40.4476 84.2724 39.6955C82.7705 38.9434 80.768 38.6091 78.2649 38.6091C75.1777 38.6091 72.4242 39.2777 70.0879 40.6983C67.6682 42.119 65.6657 43.7904 64.0804 45.8796C62.4951 47.9689 61.2435 50.2253 60.4925 52.6488C59.6582 55.0723 59.241 57.4122 59.241 59.5015C59.241 61.5907 59.5747 63.7635 60.3257 66.1034C61.0766 68.4434 62.1613 70.6162 63.6632 72.5383C65.1651 74.4604 67.0842 76.1318 69.337 77.4689C71.6732 78.806 74.4267 79.391 77.5974 79.391C79.6833 79.391 81.8527 79.0567 83.9386 78.3881C86.0246 77.7196 88.1105 76.8839 90.0296 75.8811C91.9487 74.8782 93.7843 73.7918 95.5365 72.5383C97.2053 71.3683 98.7906 70.1983 100.042 69.1955C101.377 68.1091 102.378 67.1898 103.213 66.4377C103.964 65.6856 104.464 65.1842 104.548 65.017C104.715 64.7663 104.798 64.5156 104.715 64.1813C104.631 63.8471 104.548 63.5964 104.381 63.3457C104.214 63.0949 103.964 63.0949 103.63 63.0949C103.296 63.1785 103.046 63.4292 102.629 63.9306C100.292 66.6049 97.9562 68.4434 95.8703 69.7805C93.7843 71.034 91.9487 72.0369 90.3634 72.6219C88.5277 73.2904 86.7755 73.6247 85.2736 73.6247C83.1043 73.6247 81.1852 73.1233 79.5999 71.9533C78.0145 70.8669 76.6795 69.4462 75.5948 67.6913C76.763 66.6049 78.0145 65.3513 79.433 63.8471C80.8514 62.3428 82.2699 60.8386 83.5214 59.3343C84.8565 57.7465 85.9412 56.1587 86.9424 54.5709C87.9437 53.0666 88.6946 51.6459 88.9449 50.2253ZM79.1827 41.0326C77.347 41.0326 75.8452 41.8683 74.677 43.5397C73.5089 45.2111 72.6745 47.2168 72.2573 49.7238C71.8401 52.1473 71.7567 54.8216 72.0904 57.6629C72.4242 60.5043 73.0917 63.1785 74.1764 65.602C75.3445 64.5992 76.5961 63.5128 77.9311 62.2592C79.2661 61.0057 80.6011 59.6686 81.7692 58.2479C82.9374 56.8272 84.0221 55.4901 84.8565 54.0694C85.7743 52.6488 86.2749 51.3952 86.4418 50.2253C86.6921 48.5539 86.6921 47.1332 86.3583 45.9632C86.0246 44.7932 85.524 43.874 84.8565 43.1218C84.1889 42.4533 83.2711 41.8683 82.2699 41.6176C81.2686 41.1998 80.2674 41.0326 79.1827 41.0326ZM123.822 64.2649C124.323 64.9335 125.074 66.0199 125.825 67.6077C126.659 69.1955 127.16 70.9505 127.493 72.9561C127.744 74.9618 127.577 77.1346 126.909 79.391C126.242 81.6474 124.656 83.7366 122.237 85.8258C119.817 87.8315 117.481 89.0015 115.144 89.3357C112.892 89.67 110.806 89.5029 108.887 88.8343C106.968 88.1658 105.299 87.1629 103.88 85.7422C102.378 84.4051 101.21 83.068 100.459 81.7309C100.126 81.1459 100.042 80.6445 100.126 80.3938C100.209 80.1431 100.459 79.976 100.71 79.8924C101.043 79.8088 101.377 79.8924 101.711 80.0595C102.045 80.2267 102.295 80.4774 102.378 80.8117C103.213 82.5666 104.214 83.7366 105.215 84.3216C106.217 84.9066 107.218 85.2408 108.136 85.3244C109.053 85.3244 109.888 85.2408 110.555 84.9066C111.223 84.5723 111.724 84.3216 111.89 84.0709C112.057 83.9037 112.391 83.4859 112.975 83.068C113.476 82.6502 113.976 81.8981 114.477 81.0624C114.894 80.2267 115.228 79.0567 115.395 77.8032C115.562 76.466 115.311 74.8782 114.727 72.9561C114.06 70.8669 113.059 68.9448 111.64 67.1898C110.222 65.4349 108.803 63.6799 107.218 62.0921L104.298 65.6856C103.88 66.2706 103.463 66.4377 103.046 66.187C102.378 65.8527 102.295 64.6828 102.712 64.0978C103.63 62.7607 104.798 61.7578 105.549 60.17C104.631 59.1672 103.797 58.2479 102.963 57.2451C102.128 56.2422 101.544 55.323 101.043 54.3202C100.376 52.983 99.7919 51.3117 99.3747 49.4731C98.9575 47.6346 99.0409 45.7961 99.625 44.1247C100.209 42.4533 101.461 41.0326 103.296 39.8626C105.215 38.6927 108.136 38.1077 112.141 38.1077C114.31 38.1077 115.812 38.5255 116.73 39.2777C117.564 40.0298 117.981 41.0326 117.981 42.3697C117.898 43.7068 117.481 45.2111 116.73 47.0496C115.979 48.8046 114.978 50.8102 113.893 52.8995C114.894 53.9023 115.812 54.9051 116.813 55.9915C117.731 57.0779 118.649 58.0808 119.567 59.0836C120.485 60.0864 121.319 61.0893 122.07 62.0085C122.654 62.8442 123.321 63.5964 123.822 64.2649ZM111.807 39.9462C110.722 39.9462 109.888 40.2805 109.304 40.949C108.72 41.6176 108.469 42.4533 108.386 43.5397C108.386 44.6261 108.636 45.7961 109.22 47.0496C109.804 48.3032 110.639 49.6403 111.89 50.8938C112.808 49.306 113.559 47.8853 114.143 46.5482C114.727 45.2111 115.061 44.0411 115.144 43.1218C115.228 42.119 114.978 41.3669 114.477 40.8655C113.976 40.2805 113.059 39.9462 111.807 39.9462ZM159.951 50.2253C159.617 51.5624 158.949 53.0666 157.948 54.6544C156.947 56.2423 155.779 57.8301 154.527 59.4179C153.192 61.0057 151.857 62.51 150.439 63.9306C149.02 65.4349 147.685 66.6884 146.601 67.7748C147.685 69.5298 149.02 70.9505 150.606 72.0369C152.191 73.1233 154.11 73.7083 156.279 73.7083C157.865 73.7083 159.534 73.374 161.369 72.7054C162.954 72.1204 164.79 71.2012 166.876 69.8641C168.962 68.6105 171.215 66.6884 173.635 64.0142C173.968 63.5128 174.302 63.2621 174.636 63.1785C174.97 63.0949 175.22 63.1785 175.387 63.4292C175.554 63.6799 175.72 63.9306 175.72 64.2649C175.804 64.5992 175.72 64.8499 175.554 65.1006C175.47 65.2677 174.97 65.7692 174.219 66.5213C173.468 67.2734 172.383 68.1927 171.048 69.2791C169.713 70.3655 168.211 71.4519 166.542 72.6219C164.79 73.7918 163.038 74.9618 161.035 75.9646C159.116 76.9675 157.03 77.8032 154.944 78.4717C152.858 79.1403 150.689 79.4745 148.603 79.4745C145.432 79.4745 142.679 78.806 140.343 77.5525C138.006 76.2153 136.171 74.6275 134.669 72.6219C133.167 70.6998 132.082 68.5269 131.331 66.187C130.58 63.8471 130.247 61.6743 130.247 59.585C130.247 57.4958 130.664 55.1558 131.498 52.7323C132.333 50.3088 133.501 48.0524 135.086 45.9632C136.671 43.874 138.674 42.119 141.094 40.7819C143.513 39.3612 146.183 38.6927 149.271 38.6927C151.774 38.6927 153.776 39.0269 155.278 39.7791C156.78 40.5312 157.948 41.4505 158.699 42.6204C159.45 43.7904 159.867 44.9604 160.034 46.3811C160.201 47.7182 160.201 48.9717 159.951 50.2253ZM150.188 41.0326C148.353 41.0326 146.851 41.8683 145.683 43.5397C144.515 45.2111 143.68 47.2168 143.263 49.7238C142.846 52.1473 142.762 54.8216 143.096 57.6629C143.43 60.5043 144.097 63.1785 145.182 65.602C146.35 64.5992 147.602 63.5128 148.937 62.2592C150.272 61.0057 151.607 59.6686 152.775 58.2479C153.943 56.8272 155.028 55.4901 155.862 54.0694C156.78 52.6488 157.281 51.3952 157.448 50.2253C157.698 48.5539 157.698 47.1332 157.364 45.9632C157.03 44.7932 156.53 43.874 155.862 43.1218C155.195 42.4533 154.277 41.8683 153.276 41.6176C152.358 41.1998 151.273 41.0326 150.188 41.0326ZM182.312 39.9462C181.227 39.9462 180.476 40.3641 179.976 41.1162C179.475 41.8683 179.225 42.8711 179.225 44.1247C179.225 45.3782 179.475 46.7989 179.892 48.3867C180.31 49.9745 180.894 51.6459 181.645 53.4009C182.479 51.7295 183.313 50.0581 183.897 48.4703C184.565 46.8825 184.982 45.3782 185.149 44.1247C185.316 42.8711 185.232 41.8683 184.815 41.1162C184.481 40.3641 183.647 39.9462 182.312 39.9462ZM233.46 64.0978C232.876 64.0978 232.458 64.3485 232.208 64.8499C230.79 66.6049 229.204 68.8612 227.536 70.2819C226.868 70.8669 226.034 71.4519 225.116 71.8697C224.198 72.3711 223.197 72.5383 222.112 72.5383C220.61 72.5383 219.359 71.7026 218.357 69.9476C217.356 68.1927 216.438 66.1034 215.604 63.5964C214.853 61.0893 214.102 58.3315 213.434 55.323C212.767 52.3145 212.099 49.5567 211.432 47.0496C210.764 44.5425 210.014 42.3697 209.179 40.6983C208.345 39.027 207.343 38.1077 206.092 38.1077C205.091 38.1077 204.173 38.8598 203.172 40.3641C202.17 41.8683 201.253 43.7068 200.335 45.9632C199.417 48.2196 198.499 50.6431 197.665 53.2337C196.83 55.8244 195.996 58.2479 195.245 60.5043C194.494 62.7607 193.743 64.5992 193.159 66.1034C192.492 67.6077 191.907 68.3598 191.407 68.3598C190.99 68.3598 190.406 68.0255 189.738 67.2734C189.071 66.6049 188.236 65.602 187.402 64.5156C186.567 63.3456 185.733 62.0921 184.815 60.5879C183.981 59.0836 183.146 57.4958 182.396 55.908C183.564 53.8187 184.481 51.6459 185.316 49.5567C186.15 47.4675 186.651 45.5454 186.818 43.874C186.985 42.119 186.651 40.7819 185.9 39.6955C185.149 38.6091 183.814 38.1077 181.728 38.1077C179.976 38.1077 178.474 38.3584 177.306 38.7762C176.054 39.1941 175.053 39.8626 174.135 40.6148C173.301 41.3669 172.633 42.2862 172.133 43.2054C171.632 44.2083 171.298 45.2111 170.965 46.2139C170.38 48.6374 170.214 51.3117 170.547 54.2366C171.131 59 171.966 63.1785 173.217 66.8556C173.801 68.4434 174.385 69.9476 175.136 71.4519C175.887 72.9561 176.722 74.2932 177.64 75.4632C178.557 76.6332 179.642 77.636 180.894 78.3046C182.145 78.9731 183.48 79.391 184.982 79.391C186.484 79.391 187.902 78.806 189.154 77.636C190.406 76.466 191.49 74.9618 192.492 73.2068C193.493 71.4519 194.411 69.5298 195.245 67.4406C196.079 65.3513 196.83 63.4292 197.414 61.6743C198.082 59.9193 198.666 58.4151 199.167 57.2451C199.751 56.0751 200.251 55.4901 200.668 55.4901C201.002 55.4901 201.336 56.0751 201.586 57.2451C201.837 58.4151 202.17 59.9193 202.588 61.6743C203.005 63.4292 203.422 65.3513 204.089 67.4406C204.673 69.5298 205.508 71.4519 206.426 73.2068C207.427 74.9618 208.595 76.466 210.014 77.636C211.432 78.806 213.101 79.391 215.187 79.391C217.022 79.391 218.775 79.0567 220.443 78.3046C222.112 77.636 223.697 76.7168 225.116 75.7139C226.534 74.7111 227.786 73.5411 228.954 72.3711C230.122 71.1176 231.123 70.0312 231.958 68.9448C232.792 67.7748 233.209 67.0227 233.626 66.2706C234.044 65.602 234.294 65.1842 234.294 65.1006C234.377 64.5156 234.211 64.0978 233.46 64.0978ZM249.229 31.7564C247.31 31.7564 245.725 31.0879 244.39 29.8343C243.055 28.4972 242.471 26.9094 242.471 25.0709C242.471 23.2323 243.138 21.6445 244.39 20.391C245.725 19.0539 247.31 18.4689 249.229 18.4689C251.148 18.4689 252.734 19.1374 254.069 20.391C255.404 21.7281 255.988 23.2323 255.988 25.0709C255.988 26.993 255.32 28.5808 254.069 29.8343C252.734 31.0879 251.148 31.7564 249.229 31.7564ZM272.091 64.0978C272.842 64.0978 273.26 64.5156 273.26 65.2677C273.26 65.3513 273.009 65.6856 272.509 66.4377C272.008 67.1063 271.34 68.0255 270.423 69.1119C269.505 70.1983 268.504 71.2847 267.252 72.5383C266 73.7918 264.665 74.8782 263.164 75.8811C261.662 76.8839 259.993 77.8032 258.324 78.4717C256.655 79.1403 254.82 79.5581 252.984 79.5581C250.314 79.5581 248.228 78.8896 246.726 77.4689C245.224 76.0482 244.14 74.3768 243.472 72.3711C242.805 70.3655 242.304 68.1091 242.221 65.6856C242.054 63.2621 242.054 61.0057 242.137 59C242.221 56.9944 242.221 55.2394 242.304 53.8187C242.387 52.3981 242.221 51.7295 241.887 51.7295C241.219 53.0666 240.468 54.6544 239.467 56.4094C238.549 58.1643 237.632 59.8357 236.714 61.34C235.796 62.9278 235.045 64.2649 234.377 65.3513C233.71 66.5213 233.376 67.1063 233.209 67.2734C232.959 67.6913 232.625 67.8584 232.208 67.942C231.791 68.0255 231.541 68.0255 231.207 67.8584C230.956 67.6913 230.706 67.5241 230.623 67.2734C230.539 67.0227 230.706 66.6884 230.956 66.3541C233.126 63.3456 234.878 60.17 236.547 56.9108C238.132 53.6516 239.634 50.5595 241.052 47.8017C242.471 45.0439 243.889 42.704 245.475 40.949C246.977 39.1105 248.812 38.1913 250.815 38.1913C251.649 38.1913 252.317 38.6927 252.817 39.6955C253.234 40.6983 253.568 41.9519 253.819 43.6233C253.985 45.2947 254.152 47.0496 254.152 49.1388C254.152 51.1445 254.236 53.3173 254.236 55.4901C254.236 57.6629 254.236 59.7522 254.319 61.8414C254.403 63.8471 254.569 65.6856 254.903 67.357C255.237 68.9448 255.654 70.2819 256.322 71.2847C256.906 72.2876 257.824 72.789 258.908 72.789C259.993 72.789 261.078 72.5383 262.246 72.1204C263.414 71.7026 264.415 71.1176 265.333 70.5326C266.418 69.8641 267.502 69.1119 268.504 68.2762L270.923 65.1006C271.09 64.3485 271.507 64.0978 272.091 64.0978ZM279.768 39.9462C278.683 39.9462 277.932 40.3641 277.431 41.1162C276.931 41.8683 276.681 42.8711 276.681 44.1247C276.681 45.3782 276.931 46.7989 277.348 48.3867C277.765 49.9745 278.349 51.6459 279.1 53.4009C279.935 51.7295 280.769 50.0581 281.353 48.4703C282.021 46.8825 282.438 45.3782 282.605 44.1247C282.772 42.8711 282.688 41.8683 282.271 41.1162C281.937 40.3641 281.019 39.9462 279.768 39.9462ZM330.832 64.0978C330.248 64.0978 329.831 64.3485 329.58 64.8499L327.077 68.0255C326.41 68.8612 325.742 69.6969 324.991 70.2819C324.324 70.8669 323.489 71.4519 322.571 71.8697C321.654 72.3711 320.652 72.5383 319.568 72.5383C318.066 72.5383 316.814 71.7026 315.813 69.9476C314.812 68.1927 313.894 66.1034 313.06 63.5964C312.309 61.0893 311.558 58.3315 310.89 55.323C310.223 52.3145 309.555 49.5567 308.888 47.0496C308.22 44.5425 307.469 42.3697 306.635 40.6983C305.8 39.027 304.799 38.1077 303.548 38.1077C302.546 38.1077 301.628 38.8598 300.627 40.3641C299.626 41.8683 298.708 43.7068 297.79 45.9632C296.873 48.2196 295.955 50.6431 295.12 53.2337C294.286 55.8244 293.452 58.2479 292.701 60.5043C291.95 62.7607 291.199 64.5992 290.615 66.1034C289.947 67.6077 289.363 68.3598 288.862 68.3598C288.445 68.3598 287.861 68.0255 287.194 67.2734C286.526 66.6049 285.692 65.602 284.857 64.5156C284.023 63.3456 283.189 62.0921 282.271 60.5879C281.436 59.0836 280.602 57.4958 279.851 55.908C281.019 53.8187 281.937 51.6459 282.771 49.5567C283.606 47.4675 284.107 45.5454 284.273 43.874C284.44 42.119 284.106 40.7819 283.356 39.6955C282.605 38.6091 281.27 38.1077 279.184 38.1077C277.431 38.1077 275.93 38.3584 274.761 38.7762C273.51 39.1941 272.509 39.8626 271.591 40.6148C270.756 41.3669 270.089 42.2862 269.588 43.2054C269.088 44.2083 268.754 45.2111 268.42 46.2139C267.836 48.6374 267.669 51.3117 268.003 54.2366C268.504 59 269.421 63.1785 270.673 66.8556C271.257 68.4434 271.841 69.9476 272.592 71.4519C273.343 72.9561 274.177 74.2932 275.095 75.4632C276.013 76.6332 277.098 77.636 278.349 78.3046C279.601 78.9731 280.936 79.391 282.438 79.391C283.94 79.391 285.358 78.806 286.61 77.636C287.861 76.466 288.946 74.9618 289.947 73.2068C290.948 71.4519 291.866 69.5298 292.701 67.4406C293.535 65.3513 294.286 63.4292 294.87 61.6743C295.537 59.9193 296.122 58.4151 296.622 57.2451C297.123 56.0751 297.707 55.4901 298.124 55.4901C298.458 55.4901 298.792 56.0751 299.042 57.2451C299.292 58.4151 299.626 59.9193 300.043 61.6743C300.46 63.4292 300.878 65.3513 301.545 67.4406C302.129 69.5298 302.964 71.4519 303.881 73.2068C304.883 74.9618 306.051 76.466 307.469 77.636C308.888 78.806 310.556 79.391 312.559 79.391C314.395 79.391 316.147 79.0567 317.815 78.3046C319.484 77.636 321.07 76.7168 322.488 75.7139C323.906 74.7111 325.158 73.5411 326.326 72.3711C327.494 71.1176 328.496 70.0312 329.33 68.9448C330.164 67.8584 330.748 67.0227 331.166 66.2706C331.583 65.602 331.833 65.1842 331.833 65.1006C332 64.5156 331.583 64.0978 330.832 64.0978Z" fill="#032E3C"/>
</svg>
